<svg xmlns="http://www.w3.org/2000/svg" xmlns:xlink="http://www.w3.org/1999/xlink" width="21" height="21" viewBox="0 0 21 21">
  <defs>
    <style>
      .cls-1 {
        fill: #34495e;
        fill-rule: evenodd;
        filter: url(#filter);
      }
    </style>
    <filter id="filter" x="1681" y="585" width="21" height="21" filterUnits="userSpaceOnUse">
      <feFlood result="flood" flood-color="#d0d0d0"/>
      <feComposite result="composite" operator="in" in2="SourceGraphic"/>
      <feBlend result="blend" in2="SourceGraphic"/>
    </filter>
  </defs>
  <path id="cross" class="cls-1" d="M1701.74,587.514a0.8,0.8,0,0,1,0,1.14l-6.27,6.269a0.815,0.815,0,0,0,0,1.14l6.27,6.272a0.8,0.8,0,0,1,0,1.139l-2.28,2.278a0.811,0.811,0,0,1-1.14,0l-6.28-6.272a0.809,0.809,0,0,0-1.14,0l-6.27,6.267a0.809,0.809,0,0,1-1.14,0l-2.29-2.281a0.814,0.814,0,0,1,0-1.139l6.28-6.268a0.8,0.8,0,0,0,0-1.14l-6.27-6.272a0.815,0.815,0,0,1,0-1.14l2.28-2.277a0.821,0.821,0,0,1,1.15,0l6.27,6.27a0.809,0.809,0,0,0,1.14,0l6.27-6.266a0.809,0.809,0,0,1,1.14,0Z" transform="translate(-1681 -585)"/>
</svg>
